<?xml version="1.0" encoding="utf-8"?>
<!-- Uploaded to: SVG Repo, www.svgrepo.com, Generator: SVG Repo Mixer Tools -->
<svg fill="#000000" height="800px" width="800px" version="1.2" baseProfile="tiny" id="Layer_1" xmlns="http://www.w3.org/2000/svg" xmlns:xlink="http://www.w3.org/1999/xlink"
	  viewBox="0 0 256 256" xml:space="preserve">
<path d="M249.5,206.1L114,253.7L49.8,72.2l19.6-26c2.1,0.6,4.3,1.2,6.5,1.9c13.5,4.4,24.6,10.3,32,16.8c-3.4,5.8-4.3,12.9-1.9,19.7
	c4.3,12.2,17.7,18.7,29.9,14.4s18.7-17.7,14.4-29.9c-4.3-12.2-17.7-18.7-29.9-14.4c-0.3,0.1-0.5,0.2-0.8,0.3
	c-10.4-9.8-25.4-17.2-41-22.1l23.1-30.8l83.7,20.9L249.5,206.1z M78.2,33.3C60.8,26.8,23.5,24,2.9,25.8l0.1,15
	c17.7-1.6,50.3,0.6,66.1,5.2L78.2,33.3z"/>
</svg>