<?xml version="1.0" encoding="iso-8859-1"?>
<!-- Uploaded to: SVG Repo, www.svgrepo.com, Generator: SVG Repo Mixer Tools -->
<svg height="800px" width="800px" version="1.1" id="Layer_1" xmlns="http://www.w3.org/2000/svg" xmlns:xlink="http://www.w3.org/1999/xlink" 
	 viewBox="0 0 512.001 512.001" xml:space="preserve">
<path style="fill:#394049;" d="M344.27,133.369H23.692C10.607,133.369,0,143.976,0,157.061V354.94
	c0,13.084,10.607,23.692,23.692,23.692H344.27c13.084,0,23.692-10.607,23.692-23.692V157.061
	C367.961,143.976,357.355,133.369,344.27,133.369z"/>
<path style="opacity:0.2;enable-background:new    ;" d="M355.464,367.437H34.886c-13.084,0-23.692-10.607-23.692-23.692V145.866
	c0-3.648,0.849-7.089,2.322-10.176C5.531,139.501,0,147.624,0,157.061V354.94c0,13.084,10.608,23.692,23.692,23.692H344.27
	c9.436,0,17.56-5.532,21.37-13.516C362.553,366.587,359.112,367.437,355.464,367.437z"/>
<path style="fill:#8CCFDE;" d="M42.839,310.848V201.143c0-8.946,7.253-16.199,16.199-16.199h251.81
	c8.947,0,16.199,7.253,16.199,16.199v109.706c0,8.946-7.253,16.199-16.199,16.199H59.039
	C50.091,327.048,42.839,319.795,42.839,310.848z"/>
<path style="fill:#7E858B;" d="M497.562,144.595l-129.601,39.386v144.039l129.601,39.386c7.185,2.183,14.438-3.193,14.438-10.702
	V155.297C512,147.788,504.747,142.412,497.562,144.595z"/>
<path style="opacity:0.15;enable-background:new    ;" d="M390.76,317.388c-4.61-1.401-7.761-5.652-7.761-10.471V179.411
	l-15.036,4.57v144.039l129.601,39.386c7.185,2.183,14.438-3.193,14.438-10.702v-2.47L390.76,317.388z"/>
<circle style="fill:#0069A3;" cx="113.892" cy="256" r="71.048"/>
<path style="opacity:0.2;enable-background:new    ;" d="M120.094,320.846c-39.241,0-71.052-31.812-71.052-71.052
	c0-18.042,6.737-34.502,17.816-47.033C52.135,215.78,42.84,234.798,42.84,255.997c0,39.241,31.812,71.052,71.052,71.052
	c21.199,0,40.218-9.295,53.236-24.019C154.596,314.109,138.136,320.846,120.094,320.846z"/>
<circle style="fill:#F5DF5D;" cx="113.892" cy="256" r="31.927"/>
<path style="opacity:0.2;enable-background:new    ;" d="M113.892,224.074c-9.484,0-17.999,4.141-23.845,10.708
	c5.64-5.021,13.068-8.077,21.214-8.077c17.63,0,31.921,14.292,31.921,31.922c0,8.146-3.055,15.574-8.077,21.214
	c6.567-5.846,10.708-14.361,10.708-23.845C145.813,238.365,131.521,224.074,113.892,224.074z"/>
<circle style="fill:#0069A3;" cx="256" cy="256" r="71.048"/>
<path style="opacity:0.2;enable-background:new    ;" d="M262.199,320.846c-39.241,0-71.052-31.812-71.052-71.052
	c0-18.042,6.737-34.502,17.816-47.033c-14.724,13.019-24.019,32.037-24.019,53.236c0,39.241,31.812,71.052,71.052,71.052
	c21.2,0,40.218-9.295,53.236-24.019C296.701,314.109,280.241,320.846,262.199,320.846z"/>
<circle style="fill:#F5DF5D;" cx="256" cy="256" r="31.927"/>
<path style="opacity:0.2;enable-background:new    ;" d="M255.997,224.074c-9.484,0-17.999,4.141-23.845,10.708
	c5.64-5.021,13.068-8.077,21.214-8.077c17.63,0,31.921,14.292,31.921,31.922c0,8.146-3.055,15.574-8.077,21.214
	c6.567-5.846,10.708-14.361,10.708-23.845C287.918,238.365,273.626,224.074,255.997,224.074z"/>
</svg>