<svg xmlns="http://www.w3.org/2000/svg"  viewBox="0 0 24 24" width="24px" height="24px"><path d="M 12.03125 1.5 A 1.0001 1.0001 0 0 0 11.492188 1.6386719 L 1.9921875 7.2265625 A 1.0001 1.0001 0 1 0 3 8.953125 L 3 20 A 1.0001 1.0001 0 0 0 4 21 L 20 21 A 1.0001 1.0001 0 0 0 21 20 L 21 8.953125 A 1.0001 1.0001 0 1 0 22.007812 7.2265625 L 12.507812 1.6386719 A 1.0001 1.0001 0 0 0 12.03125 1.5 z M 12 3.6601562 L 19 7.7773438 L 19 19 L 16 19 L 16 12 A 1.0001 1.0001 0 0 0 15 11 L 9 11 A 1.0001 1.0001 0 0 0 8 12 L 8 19 L 5 19 L 5 7.7773438 L 12 3.6601562 z M 10 13 L 14 13 L 14 19 L 10 19 L 10 13 z"/></svg>